<svg width="1200" height="630" viewBox="0 0 1200 630" xmlns="http://www.w3.org/2000/svg">
  <rect width="1200" height="630" fill="#0f172a" />
  <rect x="80" y="80" width="1040" height="470" rx="30" fill="#111827" stroke="#38bdf8" stroke-width="10" />
  <text x="140" y="200" fill="#f8fafc" font-family="Inter, sans-serif" font-size="64" font-weight="700">AI Customer Support</text>
  <text x="140" y="260" fill="#cbd5e1" font-family="Inter, sans-serif" font-size="26">Automation for Nigerian businesses using AI, webhooks, and Telegram.</text>
  <g transform="translate(140 340)">
    <rect x="0" y="0" width="220" height="160" rx="24" fill="#0ea5e9" />
    <text x="110" y="95" fill="#0f172a" font-family="Inter, sans-serif" font-size="40" font-weight="700" text-anchor="middle">AI</text>
  </g>
  <g transform="translate(380 335)">
    <circle cx="0" cy="70" r="70" fill="#22c55e" />
    <text x="0" y="82" fill="#0f172a" font-family="Inter, sans-serif" font-size="36" font-weight="700" text-anchor="middle">CS</text>
  </g>
  <g transform="translate(550 330)">
    <line x1="0" y1="60" x2="150" y2="60" stroke="#38bdf8" stroke-width="12" stroke-linecap="round" />
    <line x1="0" y1="100" x2="150" y2="100" stroke="#38bdf8" stroke-width="12" stroke-linecap="round" />
  </g>
  <g transform="translate(740 310)">
    <circle cx="0" cy="0" r="45" fill="#0ea5e9" />
    <text x="0" y="10" fill="#f8fafc" font-family="Inter, sans-serif" font-size="24" font-weight="700" text-anchor="middle">Telegram</text>
  </g>
  <g transform="translate(740 390)">
    <circle cx="0" cy="0" r="45" fill="#22c55e" />
    <text x="0" y="10" fill="#f8fafc" font-family="Inter, sans-serif" font-size="24" font-weight="700" text-anchor="middle">OpenAI</text>
  </g>
  <g transform="translate(740 470)">
    <circle cx="0" cy="0" r="45" fill="#facc15" />
    <text x="0" y="10" fill="#0f172a" font-family="Inter, sans-serif" font-size="24" font-weight="700" text-anchor="middle">Support</text>
  </g>
  <path d="M 730 300 L 780 300 L 780 270" stroke="#38bdf8" stroke-width="8" fill="none" />
  <path d="M 730 380 L 780 380 L 780 350" stroke="#38bdf8" stroke-width="8" fill="none" />
  <path d="M 730 460 L 780 460 L 780 430" stroke="#38bdf8" stroke-width="8" fill="none" />
</svg>